<?xml version="1.0" encoding="UTF-8"?>
<!DOCTYPE svg PUBLIC "-//W3C//DTD SVG 1.1//EN" "http://www.w3.org/Graphics/SVG/1.1/DTD/svg11.dtd">
<!-- Creator: CorelDRAW 2020 (64-Bit) -->
<svg xmlns="http://www.w3.org/2000/svg" xml:space="preserve" width="1000mm" height="1000mm" version="1.1" style="shape-rendering:geometricPrecision; text-rendering:geometricPrecision; image-rendering:optimizeQuality; fill-rule:evenodd; clip-rule:evenodd"
viewBox="0 0 100000 100000"
 xmlns:xlink="http://www.w3.org/1999/xlink"
 xmlns:xodm="http://www.corel.com/coreldraw/odm/2003">
 <defs>
  <style type="text/css">
   <![CDATA[
    .str0 {stroke:white;stroke-width:20;stroke-miterlimit:22.9256}
    .fil0 {fill:white}
   ]]>
  </style>
 </defs>
 <g id="Capa_x0020_1">
  <metadata id="CorelCorpID_0Corel-Layer"/>
  <path class="fil0 str0" d="M72114.13 64807.56l26373.08 26373.1c2011.54,2011.53 2011.57,5303.23 -0.03,7314.83l0 0c-2011.53,2011.54 -5303.23,2011.5 -7314.76,-0.03l-26373.09 -26373.1c-15782.14,12192.41 -38541.94,11051.41 -53017.41,-3424.06 -15714.73,-15714.75 -15714.73,-41193.36 0,-56908.11 15714.74,-15714.74 41193.34,-15714.74 56908.08,0 14475.46,14475.48 15616.5,37235.25 3424.13,53017.37zm-53072.27 -45757.43c11705.17,-11705.18 30683.03,-11705.18 42388.2,0 11705.18,11705.18 11705.18,30683.05 0,42388.23 -11705.17,11705.18 -30683.03,11705.18 -42388.2,0 -11705.17,-11705.18 -11705.17,-30683.05 0,-42388.23z"/>
 </g>
</svg>
